<?xml version="1.0" encoding="UTF-8"?>
<svg id="Layer_2" data-name="Layer 2" xmlns="http://www.w3.org/2000/svg" viewBox="0 0 288.7 38.06">
  <defs>
    <style>
      .cls-1 {
        fill: #4ed58a;
      }

      .cls-2 {
        fill: #fff;
      }
    </style>
  </defs>
  <g id="Layer_1-2" data-name="Layer 1">
    <g>
      <path class="cls-2" d="M70.01,11.96c-1.75-1.11-3.82-1.66-6.21-1.66-2.18,0-4.03.55-5.54,1.66-.9.67-1.66,1.52-2.31,2.51V.52h-6.86v36.4h6.5l.28-3.7c.67,1.06,1.45,1.96,2.4,2.66,1.51,1.11,3.35,1.66,5.54,1.66,2.39,0,4.46-.55,6.21-1.66,1.75-1.11,3.11-2.69,4.08-4.73.97-2.04,1.46-4.45,1.46-7.23s-.49-5.23-1.46-7.25-2.33-3.6-4.08-4.71ZM67.59,27.71c-.55,1.11-1.31,1.98-2.26,2.6-.95.62-2.05.94-3.3.94-1.18,0-2.23-.31-3.15-.94-.92-.62-1.64-1.49-2.16-2.6-.52-1.11-.78-2.37-.78-3.8s.26-2.68.78-3.77c.52-1.09,1.25-1.95,2.18-2.57.94-.62,1.99-.94,3.17-.94,1.25,0,2.35.3,3.3.91.95.61,1.7,1.46,2.24,2.57.54,1.11.81,2.38.81,3.8s-.28,2.69-.83,3.8Z"/>
      <path class="cls-2" d="M102.1,17.34c-1.16-2.3-2.7-4.06-4.63-5.25-1.93-1.2-4.03-1.79-6.32-1.79-2.63,0-4.97.58-6.99,1.74-2.03,1.16-3.62,2.76-4.79,4.81-1.16,2.05-1.74,4.4-1.74,7.07s.56,5.03,1.69,7.07c1.13,2.05,2.68,3.65,4.66,4.81,1.97,1.16,4.25,1.74,6.81,1.74,2.04,0,3.87-.28,5.46-.83,1.59-.55,2.97-1.36,4.13-2.42,1.16-1.06,2.11-2.31,2.83-3.77l-6.13-2.39c-.49.97-1.18,1.76-2.08,2.37-.9.61-2.06.91-3.48.91-1.18,0-2.28-.25-3.3-.75-1.02-.5-1.85-1.23-2.49-2.18-.53-.79-.83-1.71-.92-2.73h19.04c0-3.29-.58-6.09-1.74-8.4ZM88.39,16.64c.9-.35,1.75-.52,2.55-.52s1.62.17,2.47.52c.85.35,1.57.89,2.16,1.64.48.61.76,1.41.84,2.37h-11.25c.09-.96.39-1.75.92-2.37.64-.75,1.41-1.29,2.31-1.64Z"/>
      <path class="cls-2" d="M119.64,30.96c-.42.16-.8.23-1.14.23-.94,0-1.65-.29-2.13-.86-.49-.57-.73-1.41-.73-2.52v-11.08h6.5v-5.82h-6.5V2.8h-6.86v8.11h-4.21v5.82h4.21v12.58c0,2.63.74,4.66,2.21,6.08,1.47,1.42,3.65,2.13,6.53,2.13,1,0,2.02-.2,3.04-.6,1.02-.4,1.95-.91,2.78-1.53l-2.39-5.15c-.45.31-.88.55-1.3.7Z"/>
      <path class="cls-2" d="M143.33,11.8c-1.75-1-3.94-1.51-6.58-1.51-2.18,0-4.03.34-5.54,1.01-1.51.68-2.73,1.54-3.67,2.6-.94,1.06-1.65,2.14-2.13,3.25l6.03,2.08c.62-1.01,1.39-1.75,2.29-2.24.9-.49,1.91-.73,3.02-.73,1.21,0,2.18.3,2.89.91.71.61,1.23,1.46,1.56,2.57.13.45.23.94.31,1.46h-6.11c-3.36,0-5.97.7-7.83,2.11-1.85,1.4-2.78,3.49-2.78,6.27,0,2.53.86,4.49,2.57,5.88,1.72,1.39,4.13,2.08,7.25,2.08s5.4-.99,6.73-2.96c.15-.22.29-.46.43-.71l.12,3.05h6.4l.16-14.4c.03-2.5-.37-4.65-1.22-6.47-.85-1.82-2.15-3.23-3.9-4.24ZM140.91,28.93c-.52.85-1.22,1.54-2.11,2.08-.88.54-1.9.81-3.04.81-1.25,0-2.22-.22-2.91-.65-.69-.43-1.04-1.03-1.04-1.79,0-.97.43-1.72,1.3-2.26.87-.54,2.43-.81,4.68-.81h3.9c0,.9-.26,1.78-.78,2.63Z"/>
      <polygon class="cls-2" points="179.59 27.56 174.3 10.92 173.52 10.92 168.37 10.92 167.54 10.92 162.09 27.95 156.67 10.92 149.7 10.92 158.54 36.92 159.22 36.92 164.94 36.92 165.3 36.92 170.93 19.11 176.48 36.92 182.56 36.92 183.24 36.92 192.08 10.92 185.11 10.92 179.59 27.56"/>
      <path class="cls-2" d="M212.88,12.03c-2.05-1.16-4.4-1.74-7.07-1.74s-4.97.58-7.02,1.74c-2.05,1.16-3.64,2.76-4.78,4.81-1.14,2.05-1.72,4.4-1.72,7.07s.58,5.03,1.74,7.07c1.16,2.05,2.77,3.65,4.84,4.81s4.41,1.74,7.05,1.74,4.97-.58,6.99-1.74c2.03-1.16,3.61-2.76,4.76-4.81,1.14-2.04,1.72-4.4,1.72-7.07s-.57-5.03-1.72-7.07c-1.14-2.04-2.74-3.65-4.78-4.81ZM211.56,27.69c-.54,1.09-1.29,1.95-2.26,2.57-.97.62-2.1.94-3.38.94s-2.43-.31-3.43-.94c-1.01-.62-1.79-1.48-2.34-2.57-.55-1.09-.83-2.35-.83-3.77s.28-2.68.83-3.77c.55-1.09,1.33-1.95,2.31-2.57.99-.62,2.11-.94,3.35-.94s2.42.31,3.41.94c.99.62,1.76,1.48,2.31,2.57.55,1.09.83,2.35.83,3.77s-.27,2.68-.81,3.77Z"/>
      <path class="cls-2" d="M229.73,15.7v-4.78h-6.86v26h6.86v-13.68c0-1.35.43-2.46,1.3-3.33s2-1.49,3.41-1.87c1.4-.38,2.9-.57,4.5-.57v-6.66c-1.87,0-3.67.45-5.38,1.35-1.53.8-2.79,1.99-3.82,3.54Z"/>
      <polygon class="cls-2" points="265.45 10.92 257.29 10.92 248.4 20.71 248.4 .52 241.53 .52 241.53 36.92 248.4 36.92 248.4 29.96 251.23 26.8 258.17 36.92 266.23 36.92 255.63 21.89 265.45 10.92"/>
      <path class="cls-2" d="M287.99,26.33c-.47-1.13-1.21-2.15-2.24-3.07-1.02-.92-2.38-1.59-4.08-2l-3.38-.83c-.9-.21-1.59-.46-2.08-.75-.49-.29-.73-.67-.73-1.12,0-.69.25-1.24.75-1.64.5-.4,1.22-.6,2.16-.6s1.87.22,2.81.65c.94.43,1.53,1,1.77,1.69l5.67-2.6c-.38-1.14-1.07-2.15-2.08-3.02-1.01-.87-2.21-1.54-3.61-2.03-1.4-.48-2.92-.73-4.55-.73-3.16,0-5.59.73-7.31,2.18s-2.57,3.52-2.57,6.19c0,1.87.72,3.53,2.16,4.97,1.44,1.44,3.41,2.49,5.9,3.15l2.39.62c.87.21,1.55.46,2.05.75.5.29.75.75.75,1.38s-.31,1.1-.94,1.43c-.62.33-1.51.49-2.65.49s-2.22-.3-3.12-.91c-.9-.61-1.61-1.33-2.13-2.16l-5.88,2.7c.62,1.39,1.49,2.56,2.6,3.51,1.11.95,2.39,1.68,3.85,2.18s3.02.75,4.68.75c2.01,0,3.8-.33,5.38-.99,1.58-.66,2.83-1.59,3.74-2.78.92-1.2,1.38-2.57,1.38-4.13,0-1.07-.23-2.17-.7-3.3Z"/>
    </g>
    <path class="cls-1" d="M35.75,13.45c3.08-3.08,3.08-8.07,0-11.15s-8.07-3.08-11.15,0-8.07,3.08-11.15,0S5.39-.77,2.31,2.31C-.77,5.39-.77,10.38,2.31,13.45s3.08,8.07,0,11.15c-3.08,3.08-3.08,8.07,0,11.15s8.07,3.08,11.15,0c3.08-3.08,8.07-3.08,11.15,0,3.08,3.08,8.07,3.08,11.15,0,3.08-3.08,3.08-8.07,0-11.15s-3.08-8.07,0-11.15ZM13.45,24.6c-3.08-3.08-3.08-8.07,0-11.15,3.08-3.08,8.07-3.08,11.15,0s3.08,8.07,0,11.15c-3.08,3.08-8.07,3.08-11.15,0Z"/>
  </g>
</svg>