<?xml version="1.0" encoding="UTF-8"?>
<svg id="Layer_1" xmlns="http://www.w3.org/2000/svg" version="1.1" viewBox="0 0 258.29 36.96">
  <!-- Generator: Adobe Illustrator 30.5.1, SVG Export Plug-In . SVG Version: 2.1.4 Build 3)  -->
  <defs>
    <style>
      .st0 {
        fill: #4ed58a;
      }

      .st1 {
        fill: #fff;
      }
    </style>
  </defs>
  <path class="st0" d="M30.6,16.85c1.4-1.77,2.25-4.01,2.25-6.45C32.85,4.67,28.19.01,22.45.01h0s-19.6-.01-19.6-.01C1.28,0,0,1.28,0,2.86v31.24c0,1.58,1.28,2.86,2.86,2.86h21.73v-.03c6.04,0,10.94-4.9,10.94-10.94,0-3.82-1.96-7.18-4.93-9.13ZM24.56,18.51l-9.23,15.08c-.53.86-1.85.49-1.85-.52v-12.11c0-.55-.45-1-1-1h-6.51c-.78,0-1.26-.86-.85-1.52L14.34,3.35c.53-.86,1.85-.49,1.85.52v12.11c0,.55.45,1,1,1h6.51c.78,0,1.26.86.85,1.52Z"/>
  <g>
    <path class="st1" d="M72.54,17.53c1.06-.72,1.88-1.57,2.47-2.56.59-.99.88-2.07.88-3.24,0-1.89-.43-3.47-1.29-4.75-.86-1.27-2.06-2.23-3.61-2.86s-3.35-.95-5.41-.95h-10.18v30.07h11.56c2,0,3.75-.33,5.24-.99,1.49-.66,2.65-1.63,3.48-2.92.83-1.29,1.25-2.85,1.25-4.68,0-1.66-.38-3.09-1.14-4.27-.76-1.19-1.84-2.14-3.24-2.86ZM61.16,7.87h4.08c1.43,0,2.56.33,3.39.99.83.66,1.25,1.59,1.25,2.79s-.37,2.13-1.12,2.79c-.75.66-1.76.99-3.05.99h-4.55v-7.56ZM69.71,27c-.8.7-1.9,1.05-3.31,1.05h-5.24v-7.82h4.77c1.55,0,2.76.35,3.65,1.05.89.7,1.33,1.67,1.33,2.9s-.4,2.11-1.2,2.81Z"/>
    <path class="st1" d="M99.07,17.08c-.96-1.9-2.23-3.35-3.82-4.34-1.59-.99-3.33-1.48-5.22-1.48-2.18,0-4.1.48-5.78,1.44-1.68.96-2.99,2.28-3.95,3.97-.96,1.69-1.44,3.64-1.44,5.84s.47,4.15,1.4,5.84c.93,1.69,2.21,3.01,3.84,3.97,1.63.96,3.51,1.44,5.63,1.44,1.69,0,3.19-.23,4.51-.69,1.32-.46,2.46-1.12,3.42-2,.96-.87,1.74-1.91,2.34-3.12l-5.07-1.98c-.4.8-.97,1.45-1.72,1.96-.74.5-1.7.75-2.88.75-.97,0-1.88-.21-2.73-.62s-1.53-1.02-2.06-1.8c-.44-.66-.69-1.41-.76-2.25h15.73c0-2.72-.48-5.03-1.44-6.94ZM87.75,16.5c.74-.29,1.45-.43,2.1-.43s1.34.14,2.04.43c.7.29,1.3.74,1.78,1.35.4.51.63,1.17.7,1.96h-9.3c.08-.79.32-1.45.76-1.96.53-.62,1.17-1.07,1.91-1.35Z"/>
    <path class="st1" d="M113.57,28.34c-.34.13-.66.19-.94.19-.77,0-1.36-.24-1.76-.71-.4-.47-.6-1.17-.6-2.08v-9.15h5.37v-4.81h-5.37v-6.7h-5.67v6.7h-3.48v4.81h3.48v10.4c0,2.18.61,3.85,1.83,5.03,1.22,1.17,3.01,1.76,5.39,1.76.83,0,1.67-.17,2.51-.49.84-.33,1.61-.75,2.3-1.27l-1.98-4.25c-.37.26-.73.45-1.07.58Z"/>
    <path class="st1" d="M133.13,12.51c-1.45-.83-3.26-1.24-5.43-1.24-1.8,0-3.33.28-4.58.84-1.25.56-2.26,1.27-3.03,2.15-.77.87-1.36,1.77-1.76,2.68l4.98,1.72c.52-.83,1.15-1.45,1.89-1.85.74-.4,1.58-.6,2.49-.6,1,0,1.8.25,2.38.75.59.5,1.02,1.21,1.29,2.13.11.37.19.77.26,1.2h-5.04c-2.78,0-4.93.58-6.47,1.74-1.53,1.16-2.3,2.89-2.3,5.18,0,2.09.71,3.71,2.13,4.85,1.42,1.15,3.41,1.72,5.99,1.72s4.46-.82,5.56-2.45c.12-.19.24-.38.35-.58l.1,2.52h5.28l.13-11.9c.03-2.06-.31-3.85-1.01-5.35s-1.78-2.67-3.22-3.5ZM131.14,26.66c-.43.7-1.01,1.27-1.74,1.72-.73.44-1.57.67-2.51.67-1.03,0-1.83-.18-2.41-.54s-.86-.85-.86-1.48c0-.8.36-1.42,1.07-1.87.72-.44,2-.67,3.87-.67h3.22c0,.75-.21,1.47-.64,2.17Z"/>
    <polygon class="st1" points="173.71 3.18 167.65 24.29 161.76 3.18 161.25 3.18 156.44 3.18 155.92 3.18 150.1 24.54 144.02 3.18 138.05 3.18 146.94 33.26 147.72 33.26 152.57 33.26 153.09 33.26 158.83 12.09 164.51 33.26 165.07 33.26 170.14 33.26 170.7 33.26 179.68 3.18 173.71 3.18"/>
    <path class="st1" d="M195.66,12.7c-1.69-.96-3.64-1.44-5.84-1.44s-4.11.48-5.8,1.44c-1.69.96-3.01,2.28-3.95,3.97-.95,1.69-1.42,3.64-1.42,5.84s.48,4.15,1.44,5.84c.96,1.69,2.29,3.01,3.99,3.97,1.7.96,3.64,1.44,5.82,1.44s4.1-.48,5.78-1.44c1.67-.96,2.99-2.28,3.93-3.97s1.42-3.64,1.42-5.84-.47-4.15-1.42-5.84c-.95-1.69-2.26-3.01-3.95-3.97ZM194.56,25.63c-.44.9-1.07,1.61-1.87,2.13-.8.52-1.73.77-2.79.77s-2-.26-2.83-.77c-.83-.52-1.48-1.22-1.93-2.13-.46-.9-.69-1.94-.69-3.12s.23-2.21.69-3.11c.46-.9,1.09-1.61,1.91-2.13.82-.52,1.74-.77,2.77-.77s2,.26,2.81.77,1.45,1.22,1.91,2.13.69,1.94.69,3.11-.22,2.21-.67,3.12Z"/>
    <path class="st1" d="M209.58,15.73v-3.95h-5.67v21.48h5.67v-11.3c0-1.12.36-2.03,1.07-2.75s1.65-1.23,2.81-1.55c1.16-.31,2.4-.47,3.72-.47v-5.5c-1.55,0-3.03.37-4.45,1.12-1.26.66-2.3,1.65-3.16,2.92Z"/>
    <polygon class="st1" points="239.09 11.78 232.35 11.78 225 19.87 225 3.18 219.33 3.18 219.33 33.26 225 33.26 225 27.51 227.34 24.9 233.08 33.26 239.73 33.26 230.97 20.84 239.09 11.78"/>
    <path class="st1" d="M257.71,24.51c-.39-.93-1-1.78-1.85-2.53s-1.97-1.31-3.37-1.65l-2.79-.69c-.75-.17-1.32-.38-1.72-.62s-.6-.55-.6-.92c0-.57.21-1.02.62-1.35s1.01-.49,1.78-.49,1.55.18,2.32.54c.77.36,1.26.82,1.46,1.4l4.68-2.15c-.32-.95-.89-1.78-1.72-2.49-.83-.71-1.83-1.27-2.99-1.67-1.16-.4-2.41-.6-3.76-.6-2.61,0-4.62.6-6.04,1.8-1.42,1.2-2.13,2.91-2.13,5.11,0,1.55.59,2.92,1.78,4.1,1.19,1.19,2.81,2.06,4.88,2.6l1.98.52c.72.17,1.28.38,1.7.62.41.24.62.62.62,1.14s-.26.91-.77,1.18c-.52.27-1.25.41-2.19.41s-1.83-.25-2.58-.75c-.75-.5-1.33-1.1-1.76-1.78l-4.85,2.23c.52,1.15,1.23,2.11,2.15,2.9.92.79,1.98,1.39,3.18,1.8,1.2.41,2.49.62,3.87.62,1.66,0,3.14-.27,4.45-.82,1.3-.54,2.33-1.31,3.09-2.3.76-.99,1.14-2.13,1.14-3.42,0-.89-.19-1.8-.58-2.73Z"/>
  </g>
</svg>